<svg version="1.2" xmlns="http://www.w3.org/2000/svg" viewBox="0 0 814 223" width="814" height="223"><defs><clipPath clipPathUnits="userSpaceOnUse" id="cp1"><path d="m99 49h690.39v122.67h-690.39z"/></clipPath><clipPath clipPathUnits="userSpaceOnUse" id="cp2"><path d="m21.39 26.45h192.28v161h-192.28z"/></clipPath><clipPath clipPathUnits="userSpaceOnUse" id="cp3"><path d="m-410.93 681h89v58.67h-89z"/></clipPath><clipPath clipPathUnits="userSpaceOnUse" id="cp4"><path d="m-410.93 673h89v4h-89z"/></clipPath><clipPath clipPathUnits="userSpaceOnUse" id="cp5"><path d="m-410.93 673h89v5.33h-89z"/></clipPath><clipPath clipPathUnits="userSpaceOnUse" id="cp6"><path d="m-410.93 661.22h89v13.11h-89z"/></clipPath><clipPath clipPathUnits="userSpaceOnUse" id="cp7"><path d="m-410.93 675.67h89v6.66h-89z"/></clipPath><clipPath clipPathUnits="userSpaceOnUse" id="cp8"><path d="m-410.93 675.67h89v8h-89z"/></clipPath><clipPath clipPathUnits="userSpaceOnUse" id="cp9"><path d="m-410.93 738.33h89v10.67h-89z"/></clipPath><clipPath clipPathUnits="userSpaceOnUse" id="cp10"><path d="m-410.93 738.33h89v10.89h-89z"/></clipPath></defs><style>.a{fill:#231f20}.b{fill:#d83b2f}.c{fill:#fff}</style><g clip-path="url(#cp1)"><path class="a" d="m728.8 49.3h-567.8c-33.5 0-60.7 27.2-60.7 60.6v60.7h628.5c33.4 0 60.7-27.2 60.7-60.7 0-33.4-27.3-60.6-60.7-60.6zm0 10.7c27.6 0 49.9 22.3 49.9 49.9 0 27.6-22.3 50-49.9 50h-617.8c0 0 0-22.4 0-50 0-27.6 22.4-49.9 50-49.9z"/></g><path class="b" d="m107.8 183.9v-11.3h-11.8v-11.2h-11.9v-11.3h-11.8v-11.3h-11.8v-11.2h-11.9v-11.3h-11.8v-22.5h-11.8v-29.7h11.8v-22.6h11.8v-11.2h42.7v11.2h11.8v11.3h11.8v11.3h4.7v-11.3h11.9v-11.3h11.8v-11.2h42.7v11.2h11.8v22.6h11.8v29.7h-11.8v22.5h-11.8v11.3h-11.9v11.2h-11.8v11.3h-11.8v11.3h-11.9v11.2h-11.8v11.3z"/><g clip-path="url(#cp2)"><path class="a" d="m189.5 26.7h-49.8v11.3h-11.8v11.2h-21.3v-11.2h-11.8v-11.3h-49.7v11.3h-11.9v22.5h-11.8v36.8h11.8v22.6h11.9v11.3h11.8v11.2h11.9v11.3h11.8v11.3h11.9v11.2h11.8v11.3h26.1v-11.3h11.9v-11.2h11.8v-11.3h11.9v-11.3h11.8v-11.2h11.9v-11.3h11.8v-22.6h11.9v-36.8h-11.9v-22.5h-11.8v-11.3zm-7.1 7.1v11.3h11.8v22.6h11.8v22.5h-11.8v22.5h-11.8v11.3h-11.9v11.3h-11.8v11.3h-11.8v11.2h-11.9v11.3h-11.8v11.3h-11.8v-11.3h-11.9v-11.3h-11.8v-11.2h-11.9v-11.3h-11.8v-11.3h-11.8v-11.3h-11.9v-22.5h-11.8v-22.5h11.8v-22.6h11.9v-11.3h35.5v11.3h11.8v11.3h11.8v11.3h11.8v-11.3h11.9v-11.3h11.8v-11.3z"/></g><path class="c" d="m51.4 67.7h-11.8v11.3h23.7v-22.7h-11.9z"/><path class="c" d="m63.3 45h11.9v11.3h-11.9z"/><path class="c" d="m51.8 67.7h-11.8v11.3h23.7v-22.7h-11.9z"/><path class="c" d="m63.7 45h11.9v11.3h-11.9z"/><g clip-path="url(#cp3)"></g><g clip-path="url(#cp4)"></g><g clip-path="url(#cp5)"></g><g clip-path="url(#cp6)"></g><g clip-path="url(#cp7)"></g><g clip-path="url(#cp8)"></g><g clip-path="url(#cp9)"></g><g clip-path="url(#cp10)"></g></svg>